<svg xmlns="http://www.w3.org/2000/svg" xmlns:svg="http://www.w3.org/2000/svg" id="svg4823" width="80" height="80" version="1.1" viewBox="0 0 80 80" xml:space="preserve"><metadata id="metadata4829"/><g id="g4831" transform="matrix(1.25,0,0,-1.25,0,80)"><path id="path4835" style="fill:#039bd5;fill-opacity:1;fill-rule:nonzero;stroke:none" d="M 64,32 C 64,14.327 49.673,0 32,0 14.327,0 0,14.327 0,32 0,49.673 14.327,64 32,64 49.673,64 64,49.673 64,32"/><path id="path5452-3" style="fill:#000;fill-opacity:.15686275;fill-rule:nonzero;stroke:none;stroke-width:2.16372085" d="M 48,17.599999 C 48,15.3906 46.2094,13.6 44.000001,13.6 h -24 C 17.7906,13.6 16,15.3906 16,17.599999 16,19.809401 17.7906,21.6 20.000001,21.6 h 24 C 46.2094,21.6 48,19.809401 48,17.599999"/><path id="path5452" style="fill:#fff;fill-opacity:1;fill-rule:nonzero;stroke:none;stroke-width:2.16372061" d="M 48,19.999999 C 48,17.7906 46.2094,16 44.000001,16 h -24 C 17.7906,16 16,17.7906 16,19.999999 16,22.209401 17.7906,24 20.000001,24 h 24 C 46.2094,24 48,22.209401 48,19.999999"/><path style="fill:#000;fill-opacity:.15686275;stroke-width:.80000001" id="path4575-7" d="m 15.915261,-29.918079 8.144064,-14.105931 8.144064,-14.105932 8.144063,14.105932 8.144063,14.105932 -16.288127,0 z" transform="matrix(0.98231064,0,0,0.85070592,0.36626977,79.051486)"/><path style="fill:#fff;fill-opacity:1;stroke-width:.80000001" id="path4575" d="m 15.915261,-29.918079 8.144064,-14.105931 8.144064,-14.105932 8.144063,14.105932 8.144063,14.105932 -16.288127,0 z" transform="matrix(0.98231061,0,0,0.85070593,0.36627025,81.451486)"/></g></svg>