<svg xmlns="http://www.w3.org/2000/svg" xmlns:svg="http://www.w3.org/2000/svg" id="svg4155" width="80" height="80" version="1.1" viewBox="0 0 80 80" xml:space="preserve"><metadata id="metadata4161"/><g id="g4163" transform="matrix(1.25,0,0,-1.25,0,80)"><g id="g4" transform="matrix(0.68101956,0,0,-0.68101956,-1.959855,714.36887)" style="fill:#039bd5;fill-opacity:1"><path style="color:#000;display:inline;overflow:visible;visibility:visible;opacity:1;fill:#039bd5;fill-opacity:1;stroke:none;stroke-width:4.00000048;stroke-linecap:round;stroke-linejoin:round;stroke-miterlimit:4;stroke-dashoffset:0;stroke-opacity:1;marker:none;enable-background:accumulate" id="path6" d="M 92,8 58,22.15625 v 37.6875 L 92,74 Z M 26,23 c -9.89251,-10e-6 -18,8.02802 -18,18 0,9.97195 8.10749,18 18,18 H 54 V 23 Z M 27.40625,63 34,82 c 1.595005,4.178 4.856818,10 13,10 6.697928,0 11,-5.3726 11,-12 0,-6.6274 -5.372583,-12 -12,-12 h -1 l -1.65625,-5 z" transform="translate(0,952.36218)"/></g></g></svg>