<svg xmlns="http://www.w3.org/2000/svg" xmlns:svg="http://www.w3.org/2000/svg" id="svg4262" width="80" height="80" version="1.1" viewBox="0 0 80 80" xml:space="preserve"><metadata id="metadata4268"/><g id="g4270" transform="matrix(1.25,0,0,-1.25,0,80)"><path id="path4274" style="fill:#039bd5;fill-opacity:1;fill-rule:nonzero;stroke:none" d="m 63.8332,32 c 0,-17.673 -14.3269,-32 -32,-32 -17.673,0 -31.999997,14.327 -31.999997,32 0,17.673 14.326997,32 31.999997,32 17.6731,0 32,-14.327 32,-32"/><path style="fill:#000;fill-opacity:.15686275" id="use5562" d="m 39.90341,18.113948 -8.902692,0 c -11.061028,0.810679 -13.35404,6.127268 -13.35404,-2.225673 l 13.35404,-6.67702 0,6.67702 11.128366,0 c 0,10.606512 -2.225674,3.634632 -2.225674,2.225673 z"/><path id="path4" d="m 39.90341,19.713948 -8.902692,0 0,20.031059 -8.902693,4.451347 17.805385,0 0,-6.67702 2.225674,0 0,8.902693 -24.482406,0 0,-28.933752 13.35404,-6.67702 0,6.67702 11.128366,0 0,11.128367 -2.225674,0 0,-8.902694 z m 13.35404,13.35404 -8.902693,6.677019 0,-4.451346 -8.902693,0 0,-4.451346 8.902693,0 0,-4.451347 8.902693,6.67702 z" style="fill:#fff;fill-opacity:1"/></g></svg>