<svg xmlns="http://www.w3.org/2000/svg" xmlns:osb="http://www.openswatchbook.org/uri/2009/osb" xmlns:svg="http://www.w3.org/2000/svg" id="svg4155" width="80" height="80" version="1.1" viewBox="0 0 80 80" xml:space="preserve"><metadata id="metadata4161"/><defs id="defs4159"><linearGradient id="linearGradient4148" osb:paint="solid"><stop style="stop-color:#7b2a46;stop-opacity:1" id="stop4150" offset="0"/></linearGradient></defs><g id="g4163" transform="matrix(1.25,0,0,-1.25,0,80)"><rect id="rect3" width="44.863" height="44.863" x="9.675" y="-53.716" style="fill:none;stroke-width:1.7944;stroke-miterlimit:10;stroke-dasharray:none" transform="scale(1,-1)"/><g id="news_1_" transform="matrix(1.8658071,0,0,-1.8658071,2.4355314,66.783036)" style="fill:#039bd5;fill-opacity:1"><path id="path7" d="M 4,14 H 24 V 12 H 4 Z m 11,12 h 7 v -2 h -7 z m 0,-4 h 9 v -2 h -9 z m 0,-4 h 9 V 16 H 15 Z M 4,26 h 9 V 16 H 4 Z M 28,10 V 6 H 0 v 22 c 0,0 0,4 4,4 h 25 c 0,0 3,-0.062 3,-4 V 10 Z M 4,30 C 2,30 2,28 2,28 V 8 h 24 v 20 c 0,0.921 0.284,1.558 0.676,2 z" style="fill:#039bd5;fill-opacity:1"/></g></g></svg>