<svg xmlns="http://www.w3.org/2000/svg" xmlns:svg="http://www.w3.org/2000/svg" id="svg4155" width="80" height="80" version="1.1" viewBox="0 0 80 80" xml:space="preserve"><metadata id="metadata4161"/><g id="g4163" transform="matrix(1.25,0,0,-1.25,0,80)"><path id="path4167" style="fill:#039bd5;fill-opacity:1;fill-rule:nonzero;stroke:none" d="M 64,32 C 64,14.327 49.673,0 32,0 14.327,0 0,14.327 0,32 0,49.673 14.327,64 32,64 49.673,64 64,49.673 64,32"/><g id="g3" style="fill:#fff;fill-opacity:1" transform="matrix(0.14477231,0,0,-0.14477231,11.273682,52.969371)"><path style="fill:#fff;fill-opacity:1" id="path5" d="m 130.21376,204.922 c 10.62,10.62 16.672,11.031 27.72,0 l 81.212,-83.242 c 7.625,-12.846 1.386,-23.349 -13.856,-23.349 l -36.517,0 0,-80.453 C 188.77476,8.01 180.76476,0 170.89676,0 l -53.635,0 c -9.869,0 -17.877999,8.01 -17.877999,17.878 l 0,80.453 -36.526001,0 c -15.241,0 -21.481,10.512 -13.856,23.349 l 81.212,83.242 z m 139.014,36.436 -250.298,0 c -9.8680005,0 -17.8780005,8.009 -17.8780005,17.878 l 0,8.939 c 0,9.878 8.01,17.878 17.8780005,17.878 l 250.297,0 c 9.869,0 17.878,-8.001 17.878,-17.878 l 0,-8.939 c 10e-4,-9.869 -8.009,-17.878 -17.877,-17.878 z"/></g></g></svg>