<svg xmlns="http://www.w3.org/2000/svg" xmlns:svg="http://www.w3.org/2000/svg" id="svg18" width="512" height="512" version="1.1" viewBox="0 -64 512 512"><metadata id="metadata24"/><g id="g16" transform="matrix(0.922745 0 0 0.922745 19.7773 14.833)"><path id="path4" d="m 366.53972,252.68845 c -8.53125,0 -17.0664,-6.39844 -17.0664,-17.06641 v -93.86719 c 0,-8.53125 6.40234,-17.0664 17.0664,-17.0664 10.66797,0 14.9336,6.39843 14.9336,17.0664 v 96 c 0,8.53516 -6.39844,14.9336 -14.9336,14.9336 z m 0,0" class="active-path" data-old_color="#000000" data-original="#000000" style="fill:#039bd5"/><path id="path10" d="m277.332031 149.332031c0 11.785157-9.550781 21.335938-21.332031 21.335938s-21.332031-9.550781-21.332031-21.335938c0-11.78125 9.550781-21.332031 21.332031-21.332031s21.332031 9.550781 21.332031 21.332031zm0 0" class="active-path" data-old_color="#000000" data-original="#000000" style="fill:#039bd5"/><path id="path12" d="m277.332031 234.667969c0 11.78125-9.550781 21.332031-21.332031 21.332031s-21.332031-9.550781-21.332031-21.332031c0-11.785157 9.550781-21.335938 21.332031-21.335938s21.332031 9.550781 21.332031 21.335938zm0 0" class="active-path" data-old_color="#000000" data-original="#000000" style="fill:#039bd5"/><path id="path14" d="m454.398438 384h-394.664063c-34.132813 0-59.734375-25.601562-59.734375-57.601562v-266.664063c0-34.132813 25.601562-59.734375 59.734375-59.734375h394.664063c32 0 57.601562 25.601562 57.601562 59.734375v266.664063c0 32-25.601562 57.601562-57.601562 57.601562zm-394.664063-352c-14.933594 0-27.734375 12.800781-27.734375 27.734375v266.664063c0 14.933593 12.800781 27.734374 27.734375 27.734374h394.664063c14.933593 0 27.734374-12.800781 27.734374-27.734374v-266.664063c0-14.933594-12.800781-27.734375-27.734374-27.734375zm0 0" class="active-path" data-old_color="#000000" data-original="#000000" style="fill:#039bd5"/><path id="path4-6" d="m 156.29747,252.68845 c -8.53125,0 -17.0664,-6.39844 -17.0664,-17.0664 v -93.8672 c 0,-8.53125 6.40234,-17.0664 17.0664,-17.0664 10.66797,0 14.9336,6.39843 14.9336,17.0664 v 96.00001 c 0,8.53515 -6.39844,14.93359 -14.9336,14.93359 z" class="active-path" data-old_color="#000000" data-original="#000000" style="fill:#039bd5;stroke-width:1"/></g></svg>