<svg xmlns="http://www.w3.org/2000/svg" xmlns:svg="http://www.w3.org/2000/svg" id="svg2" height="80" style="enable-background:new 0 0 110 110" width="80" version="1.0" viewBox="0 0 110 110" xml:space="preserve"><metadata id="metadata20"/><g id="layer1" style="display:inline"><circle id="circle6" style="fill:#039bd5;fill-opacity:1" cx="55" cy="55" r="55"/><path style="fill:#000;fill-opacity:.15686275" id="use4142" d="m 86.25465,28.530776 -73.5093,36.754649 13.782994,9.188663 9.188662,18.377325 7.656472,-7.656472 17.61235,8.805054 25.268822,-65.469219 z"/><polygon points="43 83 43 73 49.67 76.33" style="fill:#b7bebf;fill-opacity:1" id="polygon10" transform="matrix(1.1485828,0,0,1.1485828,-13.672054,-7.0752906)"/><polygon points="65 84 43 73 43 83 35 67 23 59 87 27" style="fill:#fff" id="polygon12" transform="matrix(1.1485828,0,0,1.1485828,-13.672054,-7.0752906)"/><polygon points="43 83 43 73 87 27 35 67" style="fill:#cfd3d5;fill-opacity:1" id="polygon14" transform="matrix(1.1485828,0,0,1.1485828,-13.672054,-7.0752906)"/></g></svg>