<svg xmlns="http://www.w3.org/2000/svg" xmlns:svg="http://www.w3.org/2000/svg" id="svg2" width="80" height="80" version="1.1" viewBox="0 0 80 80" xml:space="preserve"><metadata id="metadata8"/><defs id="defs6"><clipPath id="clipPath16" clipPathUnits="userSpaceOnUse"><path id="path18" d="M 0,64 64,64 64,0 0,0 0,64 Z"/></clipPath><clipPath id="clipPath28" clipPathUnits="userSpaceOnUse"><path id="path30" d="m 10,52.0001 44.5,0 L 54.5,8 10,8 10,52.0001 Z"/></clipPath><clipPath id="clipPath48" clipPathUnits="userSpaceOnUse"><path id="path50-3" d="m 23.4994,49.0008 17.0012,0 0,-38.0013 -17.0012,0 0,38.0013 z"/></clipPath></defs><g id="g10" transform="matrix(1.25,0,0,-1.25,0,80)" style="display:inline"><path id="path22" style="fill:#039bd5;fill-opacity:1;fill-rule:nonzero;stroke:none" d="M 64,32 C 64,14.327 49.673,0 32,0 14.327,0 0,14.327 0,32 0,49.673 14.327,64 32,64 49.673,64 64,49.673 64,32"/></g><g id="layer2" style="display:inline"><circle id="use4269" cx="39.91" cy="42.81" r="28.745" style="opacity:1;fill:#000;fill-opacity:.17056855;stroke:none;stroke-opacity:1"/><circle style="opacity:1;fill:#fff;fill-opacity:1;stroke:none;stroke-opacity:1" id="path4174" cx="39.91" cy="40.21" r="28.745"/><circle style="opacity:1;fill:#036290;fill-opacity:1;stroke:none;stroke-opacity:1" id="path4176" cx="27.565" cy="33.379" r="4.914"/><path style="opacity:1;fill:#036290;fill-opacity:1;stroke:none;stroke-opacity:1" id="path4176-6" d="m 58.609498,44.088438 c 2e-6,10.526248 -8.53321,19.059459 -19.059457,19.059458 -10.526248,0 -19.059458,-8.53321 -19.059456,-19.059458 10.822598,0 26.991722,0 38.118913,0 z"/><path style="opacity:1;fill:#fff;fill-opacity:1;stroke:none;stroke-opacity:1" id="path4176-6-7" d="m 55.758437,46.383882 c 0,1.551486 -0.494738,3.390982 -1.209686,4.542984 -7.470104,0 -21.735573,0.04946 -29.84381,0.04946 -0.953872,-1.281469 -1.224005,-3.022933 -1.224005,-4.592444 z"/><circle style="opacity:1;fill:#036290;fill-opacity:1;stroke:none;stroke-opacity:1" id="path4176-5" cx="51.261" cy="33.36" r="4.914"/></g></svg>